<svg viewBox="524 76 340 340" xmlns="http://www.w3.org/2000/svg" role="img" aria-label="igo">
  <rect x="524" y="76" width="340" height="340" rx="76" fill="#1F5630" />
  <path
    fill="#ffffff"
    d="M577.507812,185.595169 C599.725281,145.927582 633.021790,123.075966 677.838806,117.629913 C735.296814,110.647766 788.855713,143.387863 810.105530,199.984802 C832.554321,259.775269 810.808167,326.641602 756.580627,360.269989 C727.736938,378.156952 695.929504,383.242340 662.916687,374.635895 C608.867004,360.545166 576.451721,324.897888 564.273376,270.999420 C557.553772,241.260071 563.319275,212.803177 577.507812,185.595169 M620.366699,194.545471 C620.367126,225.709671 621.040222,256.895142 620.056396,288.028198 C619.627502,301.601318 623.755554,311.597229 634.120605,319.604492 C634.777588,320.112030 635.336365,320.744659 635.969177,321.285858 C655.445557,337.942230 678.064392,344.969849 703.281616,341.150940 C731.872559,336.821106 752.981750,320.637939 768.347534,296.548218 C770.341736,293.421844 771.721191,290.120972 771.708679,286.264435 C771.648682,267.766205 771.663086,249.267548 771.719543,230.769257 C771.728149,227.944595 770.975525,225.628494 768.952209,223.570801 C750.376587,204.679550 731.840332,185.749573 713.316406,166.807632 C710.336182,163.760208 706.730835,162.408569 702.541931,162.408783 C683.722595,162.409775 664.901917,162.272308 646.084473,162.461472 C632.439270,162.598648 622.412231,171.435608 620.613770,184.581360 C620.210144,187.531952 620.432007,190.568115 620.366699,194.545471 z"
  />
  <path
    fill="#E67E22"
    d="M704.254150,223.205231 C704.080505,208.620605 703.981628,194.461990 703.920227,180.303207 C703.912292,178.480392 703.802185,176.387695 705.728149,175.436172 C707.895935,174.365082 709.057129,176.339066 710.279785,177.584915 C726.145935,193.752213 741.986084,209.945053 757.814941,226.148880 C759.079163,227.443130 760.621948,228.763168 759.816406,230.883575 C758.947571,233.170944 756.890625,233.333374 754.822571,233.334915 C741.660400,233.344681 728.497437,233.441193 715.336426,233.324142 C709.560242,233.272797 706.262695,230.154556 704.254150,223.205231 z"
  />
</svg>
